<svg width="65" height="65" viewBox="0 0 65 65" fill="none" xmlns="http://www.w3.org/2000/svg">
<g clip-path="url(#clip0_1684_7286)">
<path d="M45.2544 13.621L30.6159 15.6952C30.0397 15.7319 29.6023 16.2287 29.639 16.8049C29.6757 17.3811 30.1725 17.8185 30.7487 17.7818C30.8025 17.7784 30.8559 17.7709 30.9084 17.7592L43.052 16.046L18.1811 49.1288C17.8342 49.5903 17.9271 50.2457 18.3886 50.5927C18.8501 50.9396 19.5055 50.8467 19.8524 50.3852L44.7233 17.3024L46.4428 29.4376C46.4795 30.0138 46.9763 30.4513 47.5526 30.4145C48.1288 30.3778 48.5662 29.881 48.5295 29.3048C48.526 29.2511 48.5185 29.1977 48.5068 29.1452L46.4326 14.5066C46.3503 13.9378 45.8239 13.542 45.2544 13.621Z" fill="#412B95"/>
</g>
<defs>
<clipPath id="clip0_1684_7286">
<rect y="36.7687" width="46" height="46" transform="rotate(-53.065 0 36.7687)" fill="white"/>
</clipPath>
</defs>
</svg>
