<svg width="76" height="75" viewBox="0 0 76 75" fill="none" xmlns="http://www.w3.org/2000/svg">
<rect x="0.5" width="75" height="75" rx="37.5" fill="#FFEFEF"/>
<path d="M45.4211 26.7276C43.3008 24.6882 40.5156 23.637 37.5687 23.7448C31.9176 23.9695 27.3086 28.7491 27.2906 34.4093C27.2816 36.9159 28.1621 39.3596 29.7703 41.2823C32.0883 44.0674 33.364 47.5803 33.364 51.183C33.364 51.183 33.1215 52.8362 34.2984 52.8362H41.7015C42.9055 52.8362 42.6359 51.183 42.6359 51.183C42.6359 47.6612 43.9297 44.1752 46.3824 41.1026C47.9008 39.1889 48.7094 36.8889 48.7094 34.4452C48.7094 31.5073 47.5414 28.7581 45.4211 26.7276ZM44.918 39.9346C42.2496 43.2768 40.8211 47.0862 40.7672 50.9674H35.2328C35.1789 47.0053 33.7593 43.151 31.2078 40.0874C29.8871 38.4971 29.1593 36.4846 29.1683 34.4182C29.1863 29.7464 32.9867 25.8023 37.6496 25.6136C40.0844 25.5237 42.3844 26.3952 44.1273 28.0753C45.8793 29.7554 46.8406 32.0194 46.8406 34.4452C46.8316 36.4667 46.1758 38.3624 44.918 39.9346Z" fill="#F55C5E"/>
<path d="M50.3268 20.5915C49.9584 20.2231 49.3654 20.2231 49.0061 20.5915L46.724 22.8735C46.3557 23.2418 46.3557 23.8348 46.724 24.1942C47.0924 24.5536 47.6854 24.5625 48.0447 24.1942L50.3268 21.9122C50.6951 21.5528 50.6951 20.9598 50.3268 20.5915Z" fill="#F55C5E"/>
<path d="M41.7375 54.1121H34.2625C33.7414 54.1121 33.3281 54.5343 33.3281 55.0464C33.3281 55.5675 33.7504 55.9808 34.2625 55.9808H41.7375C42.2586 55.9808 42.6719 55.5585 42.6719 55.0464C42.6719 54.5343 42.2496 54.1121 41.7375 54.1121Z" fill="#F55C5E"/>
<path d="M40.3269 57.6338H35.6819C35.1608 57.6338 34.7476 58.0561 34.7476 58.5682C34.7476 59.0893 35.1698 59.5025 35.6819 59.5025H40.3269C40.848 59.5025 41.2612 59.0803 41.2612 58.5682C41.2612 58.0561 40.839 57.6338 40.3269 57.6338Z" fill="#F55C5E"/>
<path d="M37.9998 20.5824C38.5209 20.5824 38.9342 20.1601 38.9342 19.648V16.4227C38.9342 15.9016 38.5119 15.4883 37.9998 15.4883C37.4877 15.4883 37.0654 15.9105 37.0654 16.4227V19.648C37.0654 20.1691 37.4787 20.5824 37.9998 20.5824Z" fill="#F55C5E"/>
<path d="M29.276 24.2032C29.6444 23.8349 29.6444 23.2419 29.276 22.8825L26.994 20.6005C26.6256 20.2321 26.0327 20.2321 25.6733 20.6005C25.3139 20.9688 25.3049 21.5618 25.6733 21.9212L27.9553 24.2032C28.3237 24.5626 28.9167 24.5626 29.276 24.2032Z" fill="#F55C5E"/>
<path d="M54.4952 31.9836H51.2698C50.7487 31.9836 50.3354 32.4059 50.3354 32.918C50.3354 33.4301 50.7577 33.8524 51.2698 33.8524H54.4952C55.0163 33.8524 55.4296 33.4301 55.4296 32.918C55.4296 32.4059 55.0073 31.9836 54.4952 31.9836Z" fill="#F55C5E"/>
<path d="M24.7301 31.9836H21.5047C20.9836 31.9836 20.5703 32.4059 20.5703 32.918C20.5703 33.4301 20.9926 33.8524 21.5047 33.8524H24.7301C25.2512 33.8524 25.6645 33.4301 25.6645 32.918C25.6645 32.4059 25.2512 31.9836 24.7301 31.9836Z" fill="#F55C5E"/>
</svg>
