<svg width="76" height="75" viewBox="0 0 76 75" fill="none" xmlns="http://www.w3.org/2000/svg">
<rect x="0.5" width="75" height="75" rx="37.5" fill="#FAF2FF"/>
<path d="M29.0312 33.0994C25.0517 30.1633 21.5629 26.6147 18.6948 22.5859C18.6332 22.5003 18.551 22.4315 18.4557 22.3859C18.3605 22.3404 18.2554 22.3195 18.15 22.3253C18.0446 22.331 17.9423 22.3632 17.8527 22.4189C17.763 22.4746 17.6888 22.5519 17.6368 22.6438C15.7638 25.9554 18.5669 30.7743 20.7016 33.6812C19.931 33.0757 19.2061 32.4142 18.5327 31.7022C18.4595 31.6224 18.3668 31.5629 18.2638 31.5294C18.1607 31.4959 18.0508 31.4896 17.9446 31.5111C17.8384 31.5325 17.7396 31.5811 17.6576 31.6519C17.5757 31.7228 17.5134 31.8136 17.4769 31.9156C16.0423 35.9295 20.8475 39.7417 23.629 41.5505C22.5958 41.2231 21.634 40.703 20.7943 40.0177C20.7106 39.9468 20.6098 39.899 20.5019 39.8791C20.394 39.8592 20.2828 39.8678 20.1793 39.9042C20.0758 39.9405 19.9835 40.0032 19.9118 40.0862C19.84 40.1691 19.7911 40.2694 19.7701 40.3771C18.9999 44.2752 24.5401 46.8519 24.7751 46.9594C24.7927 46.9673 24.811 46.9745 24.8286 46.9809C30.4651 48.9489 31.3118 52.1275 31.3269 52.1883C31.3507 52.2903 31.3997 52.3847 31.4693 52.463C31.5389 52.5413 31.6269 52.601 31.7254 52.6367C31.8239 52.6724 31.9298 52.6829 32.0334 52.6674C32.137 52.6518 32.2351 52.6107 32.3187 52.5476C35.395 50.2254 36.9489 47.6016 36.9374 44.7492C36.9177 39.7033 31.9752 35.284 29.0312 33.0994ZM32.212 51.0297C31.572 49.7596 29.8229 47.4 25.2761 45.804C24.9598 45.6541 21.5806 44.0032 21.0318 41.7298C22.2253 42.4784 24.2339 43.4099 25.9959 42.6609C26.1055 42.6144 26.1996 42.5377 26.2673 42.4398C26.335 42.3419 26.3736 42.2268 26.3785 42.1079C26.3834 41.9889 26.3544 41.8711 26.2949 41.7679C26.2355 41.6648 26.148 41.5807 26.0426 41.5253C23.7886 40.343 18.5281 36.8046 18.4814 33.4293C19.5361 34.4223 21.3707 35.951 23.0418 36.3575C23.1732 36.3897 23.3114 36.3786 23.4359 36.326C23.5605 36.2735 23.6648 36.1821 23.7334 36.0656C23.802 35.949 23.8312 35.8135 23.8166 35.6791C23.8021 35.5446 23.7446 35.4185 23.6528 35.3193C21.8081 33.3237 17.6368 27.8084 18.3678 24.2506C21.1665 28.009 24.5075 31.3315 28.2815 34.1093C31.0368 36.1541 35.6642 40.2563 35.6807 44.7557C35.6897 46.9903 34.5235 49.098 32.212 51.0297Z" fill="#C688F5"/>
<path d="M58.5231 31.9157C58.4866 31.8137 58.4244 31.7228 58.3425 31.6518C58.2606 31.5809 58.1617 31.5323 58.0555 31.5108C57.9492 31.4894 57.8392 31.4957 57.7362 31.5292C57.6331 31.5628 57.5405 31.6224 57.4672 31.7023C56.7992 32.4131 56.0768 33.0708 55.3067 33.6695C57.4407 30.7611 60.2337 25.9509 58.3614 22.6432C58.3094 22.5513 58.2352 22.474 58.1455 22.4183C58.0558 22.3626 57.9536 22.3304 57.8482 22.3247C57.7428 22.3189 57.6377 22.3398 57.5425 22.3853C57.4472 22.4309 57.365 22.4996 57.3034 22.5853C54.4359 26.6143 50.9478 30.1631 46.9688 33.0995C44.0248 35.2842 39.0823 39.7034 39.0626 44.7508C39.0511 47.6035 40.605 50.2273 43.6813 52.5492C43.7651 52.6116 43.8631 52.6522 43.9665 52.6674C44.0699 52.6826 44.1755 52.6719 44.2737 52.6363C44.372 52.6007 44.4599 52.5413 44.5295 52.4634C44.5992 52.3854 44.6484 52.2914 44.6728 52.1898C44.6807 52.1578 45.509 48.9594 51.171 46.9821C51.1892 46.9757 51.2072 46.9685 51.2249 46.9606C51.461 46.8528 57.0011 44.2764 56.231 40.3765C56.2099 40.2688 56.1611 40.1685 56.0893 40.0856C56.0175 40.0026 55.9253 39.9399 55.8218 39.9035C55.7183 39.8672 55.6071 39.8586 55.4992 39.8785C55.3913 39.8984 55.2905 39.9462 55.2068 40.0171C54.3672 40.7025 53.4053 41.2226 52.372 41.5498C55.1522 39.7418 59.9577 35.9296 58.5231 31.9157ZM49.9585 41.525C49.8531 41.5804 49.7656 41.6645 49.7061 41.7677C49.6467 41.8708 49.6177 41.9887 49.6226 42.1076C49.6275 42.2266 49.666 42.3417 49.7338 42.4396C49.8015 42.5375 49.8956 42.6141 50.0052 42.6607C51.7661 43.4092 53.7739 42.4785 54.9678 41.7306C54.4162 43.9983 51.0405 45.6539 50.7246 45.8041C46.1764 47.3997 44.428 49.7594 43.7887 51.0294C41.4772 49.0978 40.311 46.99 40.32 44.7555C40.3383 40.2561 44.9639 36.1538 47.7192 34.109C51.4938 31.3311 54.835 28.0081 57.6336 24.2489C58.3646 27.8067 54.1933 33.3234 52.3487 35.3176C52.2568 35.4168 52.1993 35.543 52.1848 35.6774C52.1703 35.8118 52.1995 35.9474 52.268 36.0639C52.3366 36.1804 52.4409 36.2718 52.5655 36.3243C52.6901 36.3769 52.8283 36.388 52.9596 36.3558C54.6354 35.9483 56.475 34.4127 57.5283 33.4197C57.5312 37.4943 50.0411 41.4819 49.9585 41.525Z" fill="#C688F5"/>
</svg>
