<svg width="76" height="75" viewBox="0 0 76 75" fill="none" xmlns="http://www.w3.org/2000/svg">
<rect x="0.5" width="75" height="75" rx="37.5" fill="#FCF5E9"/>
<path d="M58.8438 25.2813H55.9688C55.8408 25.2813 55.7194 25.3036 55.6015 25.3353L54.4608 24.1946C53.9247 23.6577 53.4395 23.0662 53.019 22.4358C50.6062 18.8162 46.5697 16.6564 42.2205 16.6564H40.691C39.7904 16.6564 39.0365 17.2673 38.8021 18.0939H35.8438V23.8438H34.4063C33.8801 23.8438 33.3935 23.9962 32.9688 24.2435V20.9689H32.25C25.5124 20.9689 20.0313 26.45 20.0313 33.1876C20.0313 36.5865 21.1547 39.956 23.1938 42.675L25.3594 45.5622C23.9585 45.7736 22.5893 46.1983 21.3228 46.8316L20.8219 47.0824C20.5948 46.9322 20.3231 46.8438 20.0313 46.8438H17.1563C16.3635 46.8438 15.7188 47.4885 15.7188 48.2813V56.9062C15.7188 57.699 16.3635 58.3437 17.1563 58.3437H20.0313C20.3231 58.3437 20.5948 58.2553 20.8219 58.1051L21.3236 58.356C23.1887 59.2882 25.2767 59.7812 27.3618 59.7812H35.125C36.0802 59.7812 37.0031 59.511 37.7995 59.0107C38.1948 59.4779 38.7784 59.7812 39.4375 59.7812H42.3125C43.5013 59.7812 44.4688 58.8138 44.4688 57.625C44.4688 57.0708 44.2524 56.5699 43.9081 56.1875C44.2531 55.8051 44.4688 55.3042 44.4688 54.75C44.4688 54.1958 44.2524 53.6949 43.9081 53.3125C44.2531 52.9301 44.4688 52.4292 44.4688 51.875C44.4688 50.6862 43.5013 49.7188 42.3125 49.7188H45.1875C46.3763 49.7188 47.3438 48.7513 47.3438 47.5625C47.3438 46.3737 46.3763 45.4063 45.1875 45.4063H43.5811C45.0847 43.641 46.1471 41.5243 46.6509 39.2588L47.5213 35.3438H32.9688V31.0313H30.0938C29.301 31.0313 28.6563 30.3866 28.6563 29.5938C28.6563 28.8011 29.301 28.1563 30.0938 28.1563H31.9309C32.4297 29.0116 33.3468 29.5938 34.4063 29.5938H35.8438V33.9063H48.7813V30.8703C49.3534 30.9731 49.9377 31.0313 50.53 31.0313C51.0647 31.0313 51.5671 31.2398 51.9452 31.6171L54.578 34.2499C54.7325 34.8766 55.2953 35.3438 55.9688 35.3438H58.8438C59.6366 35.3438 60.2813 34.6991 60.2813 33.9063V26.7188C60.2813 25.9261 59.6366 25.2813 58.8438 25.2813ZM24.3438 41.8125C23.2182 40.3118 22.4046 38.5918 21.9352 36.7813H31.5313V39.6563H34.4063C35.199 39.6563 35.8438 40.301 35.8438 41.0938C35.8438 41.8866 35.199 42.5313 34.4063 42.5313H31.5313V45.4063H27.3618C27.2569 45.4063 27.1512 45.4127 27.0463 45.4156L24.3438 41.8125ZM17.1563 56.9062V48.2813H20.0313L20.032 56.9062H17.1563ZM27.3618 58.3437C25.4988 58.3437 23.6329 57.9031 21.9661 57.0701L21.4688 56.8214V48.3661L21.9661 48.1174C23.6329 47.2844 25.4981 46.8438 27.3618 46.8438H35.0064C35.4679 46.8438 35.8438 47.2197 35.8438 47.6818C35.8438 48.093 35.5491 48.4408 35.1437 48.5084L31.7052 49.0812L31.5686 49.4916C31.2359 50.4871 30.3079 51.1563 29.2586 51.1563H28.6563V52.5938H29.2586C29.5446 52.5938 29.8228 52.5528 30.0938 52.4931V54.75C30.0938 56.1573 30.6759 57.4295 31.6103 58.3437H27.3618ZM37.4135 52.5938C37.5091 52.8626 37.6543 53.1048 37.8419 53.3125C37.6543 53.5202 37.5091 53.7624 37.4135 54.0313H31.5313V52.5938H37.4135ZM43.0313 54.75C43.0313 55.146 42.7085 55.4687 42.3125 55.4687H39.4375C39.0415 55.4687 38.7188 55.146 38.7188 54.75C38.7188 54.354 39.0415 54.0313 39.4375 54.0313H42.3125C42.7085 54.0313 43.0313 54.354 43.0313 54.75ZM31.6039 55.4687H37.4135C37.5091 55.7376 37.6543 55.9798 37.8419 56.1875C37.5012 56.5648 37.2885 57.0586 37.2834 57.6041C36.6617 58.0749 35.9128 58.3437 35.125 58.3437C33.3899 58.3437 31.9381 57.1068 31.6039 55.4687ZM42.3125 58.3437H39.4375C39.0415 58.3437 38.7188 58.021 38.7188 57.625C38.7188 57.229 39.0415 56.9062 39.4375 56.9062H42.3125C42.7085 56.9062 43.0313 57.229 43.0313 57.625C43.0313 58.021 42.7085 58.3437 42.3125 58.3437ZM43.0313 51.875C43.0313 52.271 42.7085 52.5938 42.3125 52.5938H39.4375C39.0415 52.5938 38.7188 52.271 38.7188 51.875C38.7188 51.479 39.0415 51.1563 39.4375 51.1563H42.3125C42.7085 51.1563 43.0313 51.479 43.0313 51.875ZM45.9063 47.5625C45.9063 47.9586 45.5836 48.2813 45.1875 48.2813H41.5945C41.8504 47.7853 42.13 47.3023 42.4476 46.8438H45.1875C45.5836 46.8438 45.9063 47.1665 45.9063 47.5625ZM45.7287 36.7813L45.2479 38.9476C44.7757 41.0715 43.7622 43.0531 42.3168 44.6789C41.0238 46.1344 40.0348 47.8687 39.4282 49.7202C38.4967 49.7245 37.7104 50.3247 37.4135 51.157H32.2601C32.4563 50.9148 32.6309 50.6517 32.7661 50.362L35.3795 49.9265C36.482 49.7418 37.2813 48.798 37.2813 47.6818C37.2813 46.4269 36.2606 45.4063 35.0057 45.4063H32.9688V43.9688H34.4063C35.9918 43.9688 37.2813 42.6794 37.2813 41.0938C37.2813 39.5082 35.9918 38.2188 34.4063 38.2188H32.9688V36.7813H45.7287ZM30.0938 26.7188C28.5082 26.7188 27.2188 28.0083 27.2188 29.5938C27.2188 31.1794 28.5082 32.4688 30.0938 32.4688H31.5313V35.3438H21.6391C21.5298 34.6308 21.4688 33.9106 21.4688 33.1876C21.4688 27.4843 25.9207 22.8017 31.5313 22.4301V26.7188H30.0938ZM47.3438 32.4688H37.2813V28.1563H34.4063C33.6135 28.1563 32.9688 27.5116 32.9688 26.7188C32.9688 25.9261 33.6135 25.2813 34.4063 25.2813H37.2813V19.5314H38.938C39.168 19.9784 39.5662 20.332 40.0671 20.4988L42.6712 21.367C43.3396 21.5899 43.9254 21.9636 44.4098 22.4373C44.2805 22.4179 44.1496 22.4064 44.0167 22.4064C42.6805 22.4064 41.5938 23.4931 41.5938 24.8293C41.5938 25.2504 41.7045 25.6666 41.9129 26.031C43.1305 28.1614 45.0819 29.7333 47.3438 30.503V32.4688ZM50.53 29.5938C47.4918 29.5938 44.6686 27.9551 43.1614 25.3166C43.0765 25.1685 43.032 25.0003 43.032 24.8285C43.0313 24.2859 43.4733 23.8438 44.0167 23.8438C44.4652 23.8438 44.8684 24.0933 45.0682 24.4943C45.7546 25.8664 47.1339 26.7188 48.6684 26.7188H50.2188V25.2813H48.6684C48.1085 25.2813 47.5838 25.0995 47.1511 24.7854L47.1368 24.697C46.7716 22.5048 45.2342 20.7058 43.1254 20.0029L40.5214 19.1346C40.3029 19.0627 40.1563 18.8586 40.1563 18.6286C40.1563 18.3332 40.3956 18.0939 40.691 18.0939H42.2205C46.0874 18.0939 49.6776 20.0151 51.8223 23.2322C52.2952 23.9416 52.8408 24.6072 53.4438 25.2102L54.5845 26.3508C54.5536 26.4694 54.5313 26.5909 54.5313 26.7188V32.1713L52.9608 30.6008C52.3118 29.9518 51.4478 29.5938 50.53 29.5938ZM55.9688 33.9063V26.7188H58.8438L58.8445 33.9063H55.9688Z" fill="#F8A11B"/>
</svg>
