<svg width="76" height="75" viewBox="0 0 76 75" fill="none" xmlns="http://www.w3.org/2000/svg">
<rect x="0.5" width="75" height="75" rx="37.5" fill="#E7FBFC"/>
<path d="M19.3126 47.5624C19.5958 47.5628 19.8763 47.5072 20.138 47.3988C20.3996 47.2904 20.6373 47.1314 20.8373 46.9309L32.9688 34.7993L37.9129 39.7434C38.1131 39.9437 38.3508 40.1025 38.6124 40.2109C38.874 40.3192 39.1544 40.375 39.4376 40.375C39.7208 40.375 40.0012 40.3192 40.2628 40.2109C40.5244 40.1025 40.7621 39.9437 40.9623 39.7434L54.5305 26.1753L54.5297 31.0312C54.5297 31.6031 54.7569 32.1515 55.1613 32.5559C55.5657 32.9603 56.1141 33.1875 56.686 33.1875C57.2579 33.1875 57.8063 32.9603 58.2107 32.5559C58.6151 32.1515 58.8422 31.6031 58.8422 31.0312L58.8439 20.9687C58.8439 20.3969 58.6167 19.8484 58.2123 19.444C57.8079 19.0397 57.2595 18.8125 56.6876 18.8125H46.6251C46.0532 18.8125 45.5048 19.0397 45.1004 19.444C44.696 19.8484 44.4688 20.3969 44.4688 20.9687C44.4688 21.5406 44.696 22.0891 45.1004 22.4934C45.5048 22.8978 46.0532 23.125 46.6251 23.125H51.482L39.4376 35.1693L34.4936 30.2252C34.2934 30.025 34.0556 29.8661 33.794 29.7578C33.5324 29.6494 33.252 29.5936 32.9688 29.5936C32.6857 29.5936 32.4053 29.6494 32.1437 29.7578C31.882 29.8661 31.6443 30.025 31.4441 30.2252L17.7878 43.8814C17.4863 44.183 17.2809 44.5672 17.1977 44.9855C17.1145 45.4038 17.1572 45.8373 17.3204 46.2313C17.4836 46.6253 17.76 46.9621 18.1146 47.199C18.4692 47.436 18.8861 47.5624 19.3126 47.5624Z" fill="#15D1D7"/>
<path d="M56.6875 51.875H19.3125C18.7406 51.875 18.1922 52.1022 17.7878 52.5065C17.3834 52.9109 17.1562 53.4594 17.1562 54.0312C17.1562 54.6031 17.3834 55.1516 17.7878 55.5559C18.1922 55.9603 18.7406 56.1875 19.3125 56.1875H56.6875C57.2594 56.1875 57.8078 55.9603 58.2122 55.5559C58.6166 55.1516 58.8438 54.6031 58.8438 54.0312C58.8438 53.4594 58.6166 52.9109 58.2122 52.5065C57.8078 52.1022 57.2594 51.875 56.6875 51.875Z" fill="#15D1D7"/>
</svg>
