<svg width="46" height="46" viewBox="0 0 46 46" fill="none" xmlns="http://www.w3.org/2000/svg">
<g clip-path="url(#clip0_837_4708)">
<path d="M23.7368 45.696L34.1912 35.2417C34.6297 34.8662 34.6808 34.2062 34.3052 33.7677C33.9297 33.3292 33.2697 33.278 32.8312 33.6537C32.7903 33.6887 32.7521 33.7268 32.7172 33.7677L24.04 42.4343L24.04 1.04546C24.04 0.468138 23.5719 6.0555e-05 22.9945 6.05298e-05C22.4171 6.05045e-05 21.9491 0.468138 21.9491 1.04546L21.9491 42.4343L13.2825 33.7677C12.907 33.3292 12.247 33.278 11.8085 33.6537C11.3699 34.0293 11.3188 34.6892 11.6944 35.1277C11.7295 35.1686 11.7676 35.2068 11.8085 35.2417L22.2628 45.6961C22.6705 46.1014 23.329 46.1014 23.7368 45.696Z" fill="#8D80BF"/>
</g>
<defs>
<clipPath id="clip0_837_4708">
<rect x="46" width="46" height="46" transform="rotate(90 46 0)" fill="white"/>
</clipPath>
</defs>
</svg>
