<svg width="46" height="46" viewBox="0 0 46 46" fill="none" xmlns="http://www.w3.org/2000/svg">
<rect width="46" height="46" rx="23" fill="#412B95"/>
<path d="M28.9229 22.6191C28.8753 22.4964 28.804 22.3843 28.7129 22.2891L23.7129 17.2891C23.6197 17.1959 23.509 17.1219 23.3872 17.0715C23.2654 17.021 23.1348 16.9951 23.0029 16.9951C22.7366 16.9951 22.4812 17.1008 22.2929 17.2891C22.1997 17.3824 22.1257 17.4931 22.0753 17.6149C22.0248 17.7367 21.9988 17.8673 21.9988 17.9991C21.9988 18.2654 22.1046 18.5208 22.2929 18.7091L25.5929 21.9991H18.0029C17.7377 21.9991 17.4834 22.1045 17.2958 22.292C17.1083 22.4796 17.0029 22.7339 17.0029 22.9991C17.0029 23.2644 17.1083 23.5187 17.2958 23.7063C17.4834 23.8938 17.7377 23.9991 18.0029 23.9991H25.5929L22.2929 27.2891C22.1992 27.3821 22.1248 27.4927 22.074 27.6146C22.0233 27.7364 21.9971 27.8671 21.9971 27.9991C21.9971 28.1312 22.0233 28.2619 22.074 28.3837C22.1248 28.5056 22.1992 28.6162 22.2929 28.7091C22.3859 28.8029 22.4965 28.8773 22.6184 28.928C22.7402 28.9788 22.8709 29.0049 23.0029 29.0049C23.1349 29.0049 23.2656 28.9788 23.3875 28.928C23.5094 28.8773 23.62 28.8029 23.7129 28.7091L28.7129 23.7091C28.804 23.614 28.8753 23.5019 28.9229 23.3791C29.0229 23.1357 29.0229 22.8626 28.9229 22.6191Z" fill="white"/>
</svg>
