<svg width="150" height="150" viewBox="0 0 150 150" fill="none" xmlns="http://www.w3.org/2000/svg">
<g clip-path="url(#clip0_1684_7349)">
<path d="M61.9802 132.639C62.7659 132.838 63.4597 133.163 64.0614 133.613C64.6501 134.07 65.1236 134.614 65.4819 135.244C65.8402 135.875 66.0691 136.56 66.1687 137.301C66.2656 138.051 66.215 138.82 66.0171 139.606C65.7671 140.599 65.3402 141.443 64.7364 142.137C64.1223 142.828 63.3845 143.312 62.5229 143.589C61.6509 143.863 60.7136 143.872 59.7107 143.618C58.7492 143.374 57.9895 143.049 57.4317 142.643C56.8636 142.235 56.4777 141.823 56.2742 141.408C56.1402 141.11 56.1099 140.75 56.183 140.329C56.2536 139.917 56.3331 139.536 56.4217 139.184L56.8249 139.287C56.7869 140.267 56.9821 141.043 57.4103 141.614C57.8256 142.193 58.4933 142.599 59.4134 142.832C60.0441 142.993 60.6143 143 61.124 142.854C61.631 142.719 62.0853 142.465 62.4868 142.094C62.8753 141.73 63.2058 141.292 63.4783 140.777C63.7507 140.263 63.9611 139.711 64.1096 139.122C64.4248 137.87 64.5132 136.842 64.375 136.036C64.2369 135.231 63.938 134.605 63.4785 134.158C63.0165 133.722 62.4649 133.422 61.8239 133.259C61.3173 133.131 60.883 133.064 60.521 133.061C60.1486 133.054 59.7995 133.087 59.4735 133.158L58.786 135.889C58.7313 136.106 58.6507 136.317 58.5443 136.521C58.4276 136.722 58.2489 136.886 58.0082 137.012C57.7648 137.148 57.4428 137.226 57.0419 137.245C56.6411 137.265 56.1253 137.194 55.4947 137.034L55.5845 136.677C55.9981 136.782 56.3149 136.725 56.5351 136.506C56.745 136.284 56.9085 135.94 57.0257 135.475L57.7407 132.635C58.4082 132.431 59.0871 132.333 59.7776 132.344C60.4602 132.341 61.1944 132.439 61.9802 132.639Z" fill="#412B95"/>
<path d="M48.0703 128.072L43.5942 135.35C43.3427 135.759 43.2005 136.123 43.1674 136.441C43.1197 136.763 43.2999 137.05 43.7078 137.303L43.9118 137.43L43.6938 137.784L37.7787 134.116C37.4614 133.919 37.2547 133.716 37.1586 133.506C37.0569 133.305 37.0274 133.098 37.0701 132.886C37.1072 132.683 37.1817 132.491 37.2935 132.309L37.9724 131.205L38.326 131.425C37.9795 131.988 37.8776 132.489 38.0203 132.929C38.1539 133.364 38.4927 133.749 39.0366 134.087L41.3619 135.528L43.491 132.067L39.9011 129.841L40.2615 129.255L43.8514 131.481L46.1733 127.706L43.8208 126.247C43.2769 125.91 42.7611 125.741 42.2734 125.739C41.7802 125.747 41.2442 125.967 40.6655 126.399L40.4062 126.088L41.5539 125.199C41.7975 124.986 42.0484 124.853 42.3066 124.8C42.5592 124.756 42.8532 124.837 43.1886 125.045L48.0703 128.072Z" fill="#412B95"/>
<path d="M33.1327 116.889L25.8655 123.571L26.7173 124.505C27.1198 124.946 27.542 125.196 27.9841 125.253C28.4189 125.302 28.8876 125.096 29.3901 124.634L29.6704 124.941L28.7164 125.818C28.5593 125.963 28.385 126.072 28.1933 126.147C27.9938 126.229 27.7862 126.239 27.5705 126.176C27.3397 126.113 27.1021 125.948 26.8577 125.68L21.8119 120.147L22.3184 119.682L24.6472 122.235L31.9143 115.553L33.1327 116.889Z" fill="#412B95"/>
<path d="M21.303 98.8634C21.4104 99.1191 21.4185 99.3589 21.3274 99.5828C21.2265 99.8108 21.0484 99.9789 20.793 100.087C20.5572 100.187 20.3228 100.193 20.0898 100.107C19.8567 100.02 19.6865 99.8489 19.5791 99.5932C19.4676 99.3276 19.4644 99.0858 19.5694 98.8675C19.6703 98.6395 19.8387 98.4756 20.0744 98.3758C20.3298 98.2677 20.574 98.2569 20.8071 98.3436C21.0303 98.4344 21.1956 98.6077 21.303 98.8634Z" fill="#412B95"/>
<path d="M16.69 80.4541C16.7178 80.8905 16.7027 81.3244 16.6447 81.7557C16.5867 82.187 16.4841 82.589 16.3369 82.9619C16.189 83.3242 16.0047 83.6193 15.7841 83.8472C15.5522 84.0652 15.2872 84.1838 14.9892 84.203L13.1849 84.319L13.1604 83.9358C14.246 83.695 15.0063 83.2987 15.4414 82.747C15.8765 82.1952 16.0655 81.4723 16.0085 80.5781C15.9834 80.1842 15.9024 79.8367 15.7656 79.5355C15.6288 79.2344 15.4379 79.0061 15.1929 78.8509C14.9365 78.6857 14.638 78.614 14.2974 78.6359C13.8396 78.6653 13.4659 78.839 13.1763 79.1569C12.8753 79.4649 12.5767 79.8956 12.2807 80.4491L11.2404 82.488C10.8707 83.2279 10.4772 83.761 10.0598 84.0871C9.64169 84.4026 9.13991 84.5791 8.55445 84.6168C7.71352 84.6709 7.02854 84.4049 6.4995 83.819C5.97046 83.2331 5.67335 82.4292 5.60816 81.4073C5.581 80.9815 5.59676 80.5582 5.65544 80.1376C5.71411 79.717 5.81774 79.3309 5.96633 78.9793C6.10359 78.6177 6.28286 78.3283 6.50414 78.111C6.72475 77.883 6.98939 77.7591 7.29809 77.7392L9.10236 77.6232L9.12681 78.0064C8.04195 78.2579 7.28696 78.6538 6.86183 79.1942C6.42538 79.7247 6.23397 80.4104 6.28762 81.2513C6.31002 81.6026 6.39426 81.9179 6.54033 82.1971C6.6864 82.4763 6.88162 82.6882 7.12599 82.8328C7.37036 82.9774 7.65753 83.0391 7.98752 83.0179C8.4346 82.9891 8.79233 82.8165 9.06073 82.4999C9.32844 82.1727 9.59967 81.7331 9.87441 81.181L10.9147 79.142C11.2851 78.4128 11.6619 77.8701 12.0454 77.5141C12.4182 77.1588 12.8973 76.9623 13.4828 76.9246C14.3982 76.8658 15.1431 77.1492 15.7174 77.775C16.2911 78.3901 16.6153 79.2831 16.69 80.4541Z" fill="#412B95"/>
<path d="M16.9427 65.8224L7.27134 63.8425L7.0198 65.0812C6.90093 65.6666 6.9486 66.1554 7.16282 66.5477C7.37917 66.9295 7.82174 67.1888 8.49053 67.3258L8.40775 67.7334L7.13808 67.4735C6.92908 67.4307 6.73796 67.3535 6.56472 67.2418C6.38104 67.128 6.25082 66.9652 6.17408 66.7535C6.08901 66.5292 6.08256 66.2394 6.15474 65.884L7.64487 58.5458L8.31889 58.6837L7.63114 62.0706L17.3025 64.0506L16.9427 65.8224Z" fill="#412B95"/>
<path d="M24.5528 45.0052C24.4091 45.2791 24.2129 45.5615 23.964 45.8522C23.7107 46.1286 23.3751 46.3553 22.957 46.5324C22.5344 46.6951 21.9927 46.7405 21.3318 46.6687L20.3189 46.5675L18.2978 50.4218L20.3128 52.953L19.9487 53.6473L12.7604 44.6167L13.0428 44.0782L22.2532 44.9116C22.8144 44.9669 23.2723 44.9436 23.6269 44.8415C23.9771 44.725 24.2626 44.5019 24.4836 44.1723L24.809 44.3443C24.7882 44.4299 24.7503 44.5365 24.6954 44.6643C24.6548 44.7877 24.6072 44.9013 24.5528 45.0052ZM17.8308 49.831L19.5621 46.5294L14.8534 46.1033L17.8308 49.831Z" fill="#412B95"/>
<path d="M34.7248 32.5171C34.4715 32.7766 34.1761 32.9722 33.8386 33.104C33.5086 33.2282 33.114 33.2888 32.6548 33.2858C32.1955 33.2677 31.6376 33.1825 30.9812 33.0303L27.9478 32.2893L27.3666 32.8846L30.8214 36.2856L29.5472 37.5907L23.4584 31.5968C23.1163 31.2601 22.7942 31.0403 22.4921 30.9375C22.1898 30.8195 21.871 30.9323 21.5357 31.2757L21.368 31.4474L21.0715 31.1556L24.0896 28.0647C24.2834 27.8663 24.5221 27.6523 24.8059 27.4227C25.0895 27.1781 25.4036 26.9633 25.748 26.7785C26.0848 26.5862 26.441 26.4504 26.8166 26.3711C27.1922 26.2919 27.5687 26.3032 27.9461 26.4053C28.3309 26.4998 28.7058 26.7266 29.0707 27.0858C29.4887 27.4973 29.7376 27.9219 29.8172 28.3595C29.8968 28.7971 29.8709 29.2282 29.7396 29.6527C29.6007 30.0698 29.4203 30.4684 29.1982 30.8485L32.3673 31.6107C33.137 31.7996 33.7209 31.8581 34.1192 31.7862C34.5249 31.7066 34.8472 31.5749 35.0863 31.3911L35.3486 31.6493C35.3193 31.7403 35.2453 31.8695 35.1266 32.0369C35.0078 32.2044 34.8739 32.3644 34.7248 32.5171ZM26.9333 32.4581L27.6599 31.714C27.8312 31.5385 27.9835 31.3291 28.1166 31.0859C28.2421 30.8353 28.326 30.5661 28.3683 30.2785C28.4106 29.9909 28.3776 29.6964 28.2692 29.3952C28.1683 29.0863 27.9696 28.7859 27.6732 28.4941C27.3767 28.2022 27.0737 28.0087 26.7641 27.9135C26.462 27.8107 26.1682 27.7834 25.8826 27.8316C25.5969 27.8646 25.3343 27.9503 25.0948 28.0888C24.8477 28.2197 24.6384 28.3729 24.467 28.5485C24.385 28.6324 24.2846 28.7506 24.1656 28.9029C24.0467 29.0552 23.9316 29.2189 23.8205 29.3938L26.9333 32.4581Z" fill="#412B95"/>
<path d="M44.0066 25.1435L39.1553 16.5458L38.0566 17.1708C37.5374 17.4661 37.2003 17.8236 37.0451 18.2432C36.8992 18.6575 36.994 19.162 37.3295 19.7565L36.9679 19.9622L36.331 18.8335C36.2262 18.6477 36.159 18.4527 36.1296 18.2486C36.0949 18.0352 36.1321 17.8299 36.2414 17.6328C36.3546 17.4211 36.5689 17.2256 36.8841 17.0462L43.3927 13.3437L43.7308 13.9429L40.7268 15.6518L45.5781 24.2495L44.0066 25.1435Z" fill="#412B95"/>
<path d="M56.4257 19.152L54.4082 10.8496C54.2948 10.3832 54.1368 10.0266 53.9341 9.77972C53.7393 9.51996 53.4087 9.44718 52.9425 9.5614L52.7094 9.61851L52.6112 9.21428L59.3713 7.55811C59.7339 7.46927 60.0235 7.4642 60.2403 7.54289C60.4544 7.61122 60.6217 7.73496 60.7421 7.91413C60.86 8.08294 60.9441 8.27099 60.9945 8.47829L61.3005 9.73764L60.8964 9.83663C60.7403 9.19399 60.456 8.76945 60.0436 8.56299C59.6415 8.35399 59.1297 8.32564 58.5081 8.47793L55.8507 9.12898L56.8103 13.078L60.913 12.0729L61.0755 12.7415L56.9728 13.7466L58.0193 18.0533L60.7078 17.3946C61.3294 17.2423 61.8121 16.9923 62.1557 16.6445C62.4967 16.2864 62.7174 15.7491 62.8178 15.0327L63.221 15.0657L63.0448 16.5091C63.0246 16.8325 62.9427 17.1051 62.799 17.327C62.6528 17.5386 62.3881 17.6913 62.0047 17.7852L56.4257 19.152Z" fill="#412B95"/>
<path d="M72.7946 16.0715L73.3581 7.54615C73.3898 7.0672 73.3459 6.67942 73.2265 6.38283C73.1185 6.0763 72.825 5.90708 72.3461 5.87517L72.1066 5.85921L72.1341 5.44411L76.4126 5.72924C78.5731 5.87322 80.1599 6.44934 81.173 7.4576C82.1867 8.45521 82.6404 9.7576 82.5342 11.3648C82.4653 12.4078 82.1752 13.3185 81.6641 14.097C81.1537 14.8647 80.431 15.4473 79.4961 15.8447C78.5725 16.2321 77.4509 16.3819 76.1311 16.2939L72.7946 16.0715ZM76.1234 15.684C76.8897 15.7351 77.5831 15.5942 78.2038 15.2614C78.8251 14.918 79.3289 14.4117 79.7152 13.7426C80.1129 13.0635 80.3434 12.245 80.4067 11.2871C80.4686 10.3505 80.3521 9.52493 80.0573 8.81041C79.7632 8.08524 79.3254 7.51087 78.7441 7.08727C78.1741 6.65375 77.4953 6.41074 76.7077 6.35826C76.4736 6.34265 76.2494 6.3384 76.0351 6.3455C75.8315 6.35331 75.5729 6.38419 75.2593 6.43812L74.6641 15.4425C74.8954 15.5006 75.0849 15.5453 75.2325 15.5766C75.3907 15.6085 75.5387 15.6344 75.6763 15.6542C75.8147 15.6635 75.9637 15.6734 76.1234 15.684Z" fill="#412B95"/>
<path d="M99.1384 21.8303C98.8874 21.7122 98.7208 21.5395 98.6386 21.3122C98.5608 21.0753 98.5806 20.8311 98.6978 20.5798C98.8061 20.3478 98.9758 20.186 99.2069 20.0943C99.438 20.0026 99.679 20.0158 99.93 20.1339C100.191 20.2565 100.355 20.434 100.423 20.6664C100.501 20.9034 100.486 21.1379 100.377 21.3699C100.26 21.6212 100.086 21.7927 99.8547 21.8843C99.6281 21.9664 99.3893 21.9483 99.1384 21.8303Z" fill="#412B95"/>
<path d="M115.393 32.4957L119.778 24.1305C120.076 23.5496 120.231 23.0892 120.243 22.7493C120.262 22.4173 120.156 22.0895 119.926 21.7658L120.165 21.5524C120.193 21.5844 120.261 21.6526 120.368 21.7572C120.475 21.8618 120.553 21.9421 120.603 21.9979C120.829 22.2533 121.035 22.549 121.219 22.8852C121.411 23.2143 121.509 23.5985 121.514 24.0378C121.526 24.4851 121.379 25.0028 121.074 25.5908L118.19 31.0677L122.571 29.2316L123.208 27.9966C123.505 27.4157 123.653 26.9474 123.651 26.5914C123.656 26.2435 123.547 25.9117 123.324 25.596L123.562 25.3826C123.591 25.4146 123.651 25.4748 123.744 25.5635C123.844 25.6601 123.919 25.7363 123.969 25.7922C124.202 26.0555 124.411 26.3553 124.595 26.6914C124.779 27.0276 124.874 27.4154 124.878 27.8547C124.898 28.2949 124.752 28.8051 124.439 29.385L121.477 35.0391L129.137 31.8596L129.625 32.4102L119.162 36.7449L118.822 36.3618L122.025 30.2561L115.733 32.8788L115.393 32.4957Z" fill="#412B95"/>
<path d="M127.673 49.3908C127.512 49.054 127.433 48.7662 127.437 48.5274C127.456 48.2936 127.576 48.0757 127.799 47.8736C128.031 47.6669 128.387 47.4477 128.867 47.216L136.563 43.5042L137.35 45.1495L129.655 48.8613C129.222 49.0699 128.899 49.2967 128.685 49.542C128.486 49.7922 128.49 50.1338 128.697 50.5668L128.793 50.7688L128.419 50.9496L127.673 49.3908Z" fill="#412B95"/>
<path d="M131.598 59.6834L141.207 57.4185L140.919 56.1877C140.783 55.606 140.536 55.1821 140.178 54.9158C139.822 54.6599 139.312 54.6102 138.648 54.7668L138.553 54.3618L139.814 54.0644C140.022 54.0155 140.228 54.0053 140.432 54.034C140.646 54.0602 140.832 54.1533 140.99 54.3134C141.161 54.4813 141.287 54.7419 141.37 55.095L143.075 62.3864L142.405 62.5442L141.618 59.179L132.01 61.444L131.598 59.6834Z" fill="#412B95"/>
<path d="M133.929 73.4823L142.453 74.0622C142.932 74.0947 143.32 74.0516 143.617 73.9328C143.923 73.8254 144.093 73.5322 144.125 73.0533L144.141 72.8138L144.556 72.8421L144.44 74.5662C144.415 74.9386 144.337 75.222 144.206 75.4162C144.075 75.6211 143.863 75.7564 143.57 75.822C143.276 75.8876 142.864 75.9023 142.332 75.8661L139.602 75.6804L139.298 80.1822L144.039 80.5047L143.917 82.3245L135.392 81.7447C134.913 81.7121 134.521 81.7495 134.214 81.857C133.917 81.9758 133.753 82.2746 133.721 82.7535L133.706 82.977L133.29 82.9488L133.407 81.2247C133.432 80.8522 133.505 80.5632 133.626 80.3576C133.756 80.1633 133.968 80.0334 134.261 79.9678C134.565 79.903 134.983 79.8886 135.515 79.9248L138.612 80.1355L138.916 75.6337L133.807 75.2862L133.929 73.4823Z" fill="#412B95"/>
<path d="M128.287 99.5253C128.404 99.2737 128.575 99.1067 128.802 99.0241C129.038 98.9461 129.281 98.9658 129.533 99.0833C129.765 99.1917 129.927 99.3618 130.019 99.5934C130.112 99.825 130.099 100.067 129.983 100.318C129.862 100.58 129.685 100.744 129.454 100.813C129.218 100.891 128.984 100.875 128.752 100.767C128.5 100.65 128.329 100.475 128.236 100.243C128.153 100.016 128.17 99.7769 128.287 99.5253Z" fill="#412B95"/>
<path d="M116.856 116.522C117.567 115.83 118.27 115.39 118.965 115.204C119.653 115.026 120.344 115.089 121.04 115.394C121.735 115.699 122.45 116.231 123.184 116.991L125.931 119.832C126.257 120.17 126.566 120.397 126.858 120.515C127.142 120.64 127.452 120.554 127.787 120.257L127.936 120.112L128.226 120.411L127.068 121.539C126.801 121.799 126.554 121.958 126.327 122.015C126.093 122.08 125.845 122.038 125.584 121.891C125.322 121.743 125.006 121.478 124.636 121.094L121.544 117.919C120.758 117.121 119.994 116.637 119.251 116.467C118.516 116.305 117.816 116.548 117.151 117.195C116.601 117.731 116.262 118.263 116.133 118.79C115.998 119.325 116.061 119.881 116.323 120.46C116.585 121.038 117.043 121.665 117.695 122.34L121.843 126.631L121.316 127.144L117.168 122.853C116.456 122.117 115.948 121.406 115.642 120.722C115.336 120.037 115.271 119.348 115.447 118.655C115.622 117.978 116.092 117.267 116.856 116.522Z" fill="#412B95"/>
<path d="M103.288 126.78C103.675 126.576 104.077 126.412 104.494 126.289C104.911 126.166 105.319 126.095 105.719 126.078C106.11 126.065 106.454 126.113 106.751 126.221C107.044 126.344 107.26 126.538 107.398 126.803L108.235 128.405L107.896 128.584C107.236 127.69 106.566 127.157 105.886 126.984C105.206 126.812 104.47 126.935 103.677 127.352C103.328 127.536 103.044 127.752 102.825 128.001C102.605 128.249 102.475 128.517 102.432 128.804C102.385 129.106 102.441 129.408 102.599 129.711C102.812 130.117 103.122 130.388 103.529 130.523C103.932 130.672 104.446 130.769 105.071 130.814L107.353 130.931C108.178 130.967 108.824 131.109 109.291 131.357C109.748 131.611 110.113 131.997 110.385 132.517C110.775 133.264 110.81 133.999 110.49 134.722C110.17 135.446 109.557 136.046 108.651 136.523C108.274 136.722 107.881 136.881 107.473 136.999C107.066 137.117 106.672 137.18 106.291 137.188C105.905 137.21 105.568 137.165 105.28 137.051C104.983 136.943 104.763 136.752 104.619 136.477L103.782 134.875L104.121 134.696C104.791 135.585 105.458 136.114 106.124 136.281C106.785 136.464 107.488 136.358 108.233 135.966C108.545 135.802 108.798 135.596 108.994 135.348C109.189 135.1 109.303 134.835 109.336 134.553C109.369 134.27 109.309 133.982 109.156 133.689C108.948 133.292 108.646 133.036 108.248 132.92C107.841 132.809 107.33 132.74 106.715 132.715L104.433 132.597C103.617 132.556 102.969 132.434 102.489 132.229C102.014 132.033 101.64 131.675 101.368 131.155C100.943 130.342 100.9 129.545 101.238 128.764C101.567 127.988 102.25 127.327 103.288 126.78Z" fill="#412B95"/>
<path d="M84.2928 133.43C84.567 133.389 84.8011 133.44 84.995 133.583C85.1904 133.737 85.3086 133.952 85.3494 134.226C85.387 134.479 85.3348 134.708 85.1927 134.913C85.0506 135.117 84.8424 135.24 84.5681 135.281C84.2833 135.324 84.0484 135.268 83.8635 135.112C83.6681 134.958 83.5515 134.754 83.5139 134.501C83.4731 134.227 83.5237 133.987 83.6658 133.783C83.8095 133.589 84.0185 133.471 84.2928 133.43Z" fill="#412B95"/>
</g>
<defs>
<clipPath id="clip0_1684_7349">
<rect width="150" height="150" fill="white"/>
</clipPath>
</defs>
</svg>
