<svg width="76" height="75" viewBox="0 0 76 75" fill="none" xmlns="http://www.w3.org/2000/svg">
<rect x="0.5" width="75" height="75" rx="37.5" fill="#FFE9FE"/>
<path d="M42.5269 24.3084C37.1576 22.3523 28.0603 24.7604 25.4917 30.2564C24.2483 32.9163 24.3499 34.8557 24.448 36.7315C24.5061 37.8416 24.5611 38.8899 24.3599 40.1241C24.2868 40.5706 23.5773 41.4488 23.007 42.1544C21.9408 43.4735 21.0201 44.6128 21.4778 45.6243C21.9026 46.561 23.0358 46.7886 23.7856 46.9399C23.9783 46.9784 24.2418 47.0312 24.3171 47.0675C25.2499 47.5591 25.2588 47.7724 25.1928 48.1362C25.0162 49.1071 24.8825 52.1733 26.5308 53.4774C27.4468 54.2022 28.5714 54.158 29.5649 54.1209C30.081 54.103 30.5675 54.0824 30.9649 54.1701C33.6633 54.7644 32.8622 58.8764 32.8536 58.9249C32.7851 59.3223 33.0516 59.7004 33.449 59.7688C33.8481 59.843 34.2237 59.572 34.2933 59.1753C34.3375 58.9199 35.3373 53.6365 31.2788 52.7433C30.6985 52.6156 30.0938 52.6392 29.5089 52.6613C28.697 52.6905 27.9305 52.7226 27.4372 52.3317C26.58 51.6533 26.4159 49.5751 26.6303 48.3973C26.9224 46.7893 25.6708 46.1294 24.9984 45.7749C24.748 45.6429 24.4355 45.5801 24.0739 45.5073C23.6718 45.4267 22.9242 45.2762 22.8218 45.0679C22.809 44.7241 23.644 43.6903 24.1434 43.0733C24.9267 42.1037 25.6665 41.1884 25.8017 40.3595C26.0282 38.9698 25.9668 37.793 25.9073 36.6548C25.8142 34.8803 25.7264 33.2041 26.8151 30.8749C29.0237 26.1501 37.2567 23.9439 42.0269 25.681C48.4878 28.0359 51.982 33.1785 51.6135 39.7902C51.4137 43.3821 48.2441 47.9015 46.3508 50.6017C45.4176 51.9322 44.9625 52.5921 44.8169 53.0508C44.0543 55.4628 44.5034 58.9506 44.5231 59.1289C44.5641 59.5034 44.8805 59.7802 45.2482 59.7802C45.275 59.7802 45.3017 59.7788 45.3285 59.776C45.7294 59.7325 46.019 59.3715 45.9755 58.9706C45.9709 58.9299 45.5403 55.6098 46.2099 53.4917C46.2941 53.227 46.9596 52.2782 47.5468 51.4406C49.53 48.6128 52.8491 43.8801 53.0724 39.8715C53.4791 32.5717 49.6356 26.8992 42.5269 24.3084Z" fill="#DB38D1"/>
<path d="M38 21.1328C38.4035 21.1328 38.7305 20.8057 38.7305 20.4023V15.9493C38.7305 15.5458 38.4035 15.2188 38 15.2188C37.5966 15.2188 37.2695 15.5458 37.2695 15.9493V20.4023C37.2695 20.8057 37.5966 21.1328 38 21.1328Z" fill="#DB38D1"/>
<path d="M43.7015 22.2914C43.8088 22.3471 43.9237 22.3735 44.0371 22.3735C44.3011 22.3735 44.5561 22.2301 44.6863 21.9794L46.7413 18.0204C46.9271 17.6626 46.7873 17.2213 46.4292 17.0355C46.0717 16.85 45.6301 16.9891 45.4443 17.3473L43.3893 21.3066C43.2035 21.6644 43.3433 22.1056 43.7015 22.2914Z" fill="#DB38D1"/>
<path d="M49.1434 25.2085C49.3029 25.2085 49.4631 25.1568 49.5975 25.0502L53.1677 22.2151C53.4834 21.964 53.5362 21.5046 53.2854 21.1885C53.0343 20.8725 52.5738 20.8201 52.2589 21.0708L48.6887 23.9058C48.373 24.157 48.3202 24.6164 48.571 24.9324C48.7151 25.114 48.9284 25.2085 49.1434 25.2085Z" fill="#DB38D1"/>
<path d="M57.3022 27.6103C57.1831 27.2244 56.7728 27.0082 56.389 27.1266L51.9731 28.4843C51.5875 28.603 51.371 29.0118 51.4894 29.3974C51.5861 29.7113 51.8754 29.9135 52.1875 29.9135C52.2588 29.9135 52.3309 29.9028 52.4026 29.8811L56.8185 28.5235C57.2041 28.4047 57.4206 27.9959 57.3022 27.6103Z" fill="#DB38D1"/>
<path d="M31.3142 21.9796C31.4444 22.23 31.6994 22.3735 31.9634 22.3735C32.0768 22.3735 32.1917 22.347 32.2994 22.2914C32.6575 22.1052 32.797 21.6643 32.6112 21.3062L30.5555 17.3472C30.3693 16.9891 29.9288 16.8507 29.5703 17.0354C29.2122 17.2217 29.0727 17.6626 29.2586 18.0207L31.3142 21.9796Z" fill="#DB38D1"/>
<path d="M26.4034 25.0501C26.5376 25.1568 26.6977 25.2085 26.8572 25.2085C27.0723 25.2085 27.2856 25.1139 27.4297 24.932C27.6804 24.6163 27.6277 24.1565 27.3116 23.9058L23.7407 21.0708C23.4254 20.82 22.9649 20.8717 22.7145 21.1889C22.4637 21.5045 22.5165 21.9643 22.8326 22.215L26.4034 25.0501Z" fill="#DB38D1"/>
<path d="M23.8133 29.9135C24.1255 29.9135 24.4147 29.7113 24.5114 29.3974C24.6298 29.0118 24.4133 28.603 24.0277 28.4843L19.6111 27.1266C19.2251 27.0082 18.8164 27.2244 18.6979 27.6103C18.5795 27.9959 18.796 28.4047 19.1816 28.5235L23.5983 29.8811C23.6699 29.9028 23.742 29.9135 23.8133 29.9135Z" fill="#DB38D1"/>
<path d="M47.55 39.0631C48.137 38.831 48.6377 38.4098 48.9957 37.8221C49.6981 36.6692 49.651 35.1882 48.8809 34.2198C48.2387 33.4114 47.4802 33.2354 46.7844 33.2408C46.8441 32.4311 46.5291 31.6738 45.8832 31.1654C45.3861 30.7745 44.7781 30.599 44.1881 30.6407C44.0468 29.8386 43.5434 29.0948 42.6811 28.4277C41.8439 27.7793 40.9072 27.8506 40.2227 27.9023C39.9712 27.9216 39.7108 27.9408 39.5842 27.9102C39.5022 27.8898 39.2821 27.7589 39.1212 27.663C38.4495 27.2624 37.3238 26.5922 35.9848 27.2107C35.1588 27.5924 34.6716 28.1825 34.3987 28.8118C32.5727 28.4402 31.3337 29.456 30.7955 30.5494C30.573 31.001 30.4626 31.4728 30.4344 31.9319C29.086 32.0319 27.9403 32.9989 27.6088 34.3674C27.2802 35.724 27.8752 37.017 29.1251 37.6612C30.3468 38.2915 31.3331 37.8531 32.1246 37.501C32.7278 37.2332 33.1176 37.0748 33.5453 37.1986C34.3521 37.4311 34.6389 38.0226 34.9707 38.7074C35.2974 39.3816 35.704 40.2212 36.7067 40.4381C37.7968 40.6742 38.639 40.1877 39.2535 39.8332C39.7162 39.5664 40.0115 39.4001 40.2684 39.4629C40.8294 39.5899 41.1975 40.0586 41.6238 40.6007C42.1824 41.3113 42.8772 42.1952 44.1642 42.1995H44.1771C45.1962 42.1995 46.0512 41.8835 46.6504 41.2863C47.204 40.7344 47.513 39.9468 47.55 39.0631ZM45.7465 39.2032C45.8589 39.2252 45.9666 39.2248 46.0768 39.2362C46.0206 39.6509 45.8654 40.0059 45.6188 40.2519C45.295 40.5751 44.8102 40.7384 44.1781 40.7384C44.1749 40.7384 44.1717 40.7384 44.1685 40.7384C43.616 40.737 43.2939 40.361 42.7728 39.6983C42.7225 39.6344 42.6699 39.5681 42.6168 39.5017C42.6311 39.4212 42.6389 39.3384 42.6243 39.2532C42.5855 39.0249 42.7688 38.6732 43.0706 38.3974C43.3913 38.1042 43.7066 38.0154 43.83 38.0497C44.2231 38.1527 44.6197 37.9205 44.7232 37.5303C44.8263 37.1404 44.5937 36.7406 44.2038 36.6371C43.5368 36.4602 42.7446 36.7156 42.0847 37.3191C41.7517 37.6236 41.5033 37.9716 41.3472 38.3323C41.122 38.2053 40.8732 38.1018 40.5915 38.0379C40.4211 37.9993 40.2594 37.9897 40.1023 37.994C40.1132 37.6044 40.0606 37.2204 39.95 36.8604C39.9838 36.8389 40.0211 36.826 40.0519 36.7984C40.8484 36.0818 41.5503 35.9055 42.4785 36.1898C42.8615 36.3075 43.2725 36.0928 43.3913 35.7065C43.5101 35.3209 43.2935 34.9121 42.908 34.7937C42.355 34.6236 41.8345 34.5658 41.3348 34.6169C41.0576 34.0135 41.0342 33.1388 41.3135 32.5776C41.4933 32.2162 41.3463 31.7778 40.9853 31.5981C40.6215 31.4176 40.1853 31.5652 40.0058 31.9262C39.5541 32.8337 39.5565 34.0873 39.9494 35.0719C39.6931 35.2182 39.4404 35.4039 39.1892 35.6191C38.6667 35.123 37.9728 34.8649 37.1605 34.9018C36.7577 34.9214 36.4467 35.2642 36.4663 35.6673C36.4859 36.07 36.8291 36.371 37.2318 36.3614C37.724 36.3354 38.1068 36.5023 38.3511 36.8529C38.657 37.2924 38.7122 37.9692 38.5255 38.5667C38.5246 38.5672 38.5236 38.5678 38.5227 38.5683C38.0033 38.8672 37.555 39.1276 37.0156 39.0099C36.7363 38.9492 36.5862 38.691 36.2854 38.0703C35.9814 37.4428 35.5791 36.6354 34.7041 36.1231C34.9852 35.7278 35.1528 35.2944 35.2152 34.8503C35.8001 34.6699 36.8064 34.2772 37.5995 33.5199C38.8484 32.3264 38.6896 30.7231 38.6821 30.6553C38.639 30.2572 38.288 29.969 37.8838 30.0111C37.485 30.0507 37.1929 30.4081 37.2289 30.8073C37.2325 30.8465 37.3078 31.7778 36.5904 32.4634C36.0949 32.9364 35.4545 33.2226 35.0013 33.3823C34.8513 33.0523 34.6236 32.7001 34.2697 32.3425C33.9865 32.0564 33.5239 32.0539 33.2364 32.3372C32.9496 32.6211 32.9475 33.0837 33.2311 33.3705C33.6113 33.7543 33.8007 34.1392 33.7946 34.5148C33.7864 35.0045 33.449 35.3958 33.2485 35.5856C33.2132 35.619 33.1951 35.6618 33.1679 35.7C32.5431 35.7199 31.996 35.9589 31.5314 36.1656C30.7841 36.4987 30.3664 36.6574 29.7946 36.3628C28.8593 35.8806 28.9475 35.0473 29.0288 34.7113C29.185 34.0675 29.7618 33.374 30.6596 33.3733C30.6673 33.3733 30.6737 33.3692 30.6813 33.3689C30.8704 33.7836 31.1528 34.1378 31.5364 34.3728C31.6555 34.4459 31.7871 34.4805 31.9173 34.4805C32.1631 34.4805 32.4032 34.3567 32.5408 34.1317C32.7517 33.7878 32.6436 33.338 32.2997 33.1272C31.8228 32.8347 31.734 31.9501 32.106 31.1953C32.2999 30.8006 32.8623 30.0007 34.0997 30.244C34.0933 30.6212 34.1369 30.9637 34.2034 31.226C34.3019 31.6156 34.6974 31.8499 35.0862 31.7536C35.4761 31.6573 35.7148 31.2621 35.6206 30.8715C35.5788 30.6978 35.2514 29.159 36.5976 28.5369C37.1922 28.2615 37.6866 28.5091 38.3732 28.9182C38.6657 29.0923 38.9418 29.2567 39.2364 29.3291C39.5903 29.4151 39.968 29.3865 40.334 29.3591C40.878 29.3181 41.393 29.2781 41.7868 29.5831C42.4 30.0575 42.7299 30.5373 42.7681 31.0088C42.8024 31.435 42.5976 31.8888 42.1596 32.3578C41.8838 32.6524 41.8995 33.1147 42.1946 33.3901C42.3354 33.5217 42.5145 33.587 42.6932 33.587C42.8883 33.587 43.0831 33.5092 43.2268 33.3552C43.5783 32.9791 43.8371 32.5833 44.0055 32.1791C44.3516 32.0244 44.7334 32.1193 44.9796 32.3136C45.1787 32.4706 45.4804 32.8298 45.2603 33.4732C45.1152 33.8999 44.6679 34.3161 44.5099 34.4388C44.1892 34.6835 44.1279 35.1422 44.3729 35.4625C44.5166 35.6509 44.7339 35.7497 44.954 35.7497C45.1084 35.7497 45.2643 35.7008 45.3966 35.5995C45.4603 35.5509 45.8602 35.2316 46.2112 34.7488C46.9545 34.6506 47.3553 34.6485 47.7373 35.1287C48.1271 35.6191 48.1318 36.432 47.7483 37.0616C47.5354 37.4108 47.0324 37.9676 46.0298 37.7697C45.6363 37.6912 45.25 37.9483 45.1716 38.3446C45.0931 38.7402 45.3506 39.1247 45.7465 39.2032Z" fill="#DB38D1"/>
</svg>
