<svg width="20" height="15" viewBox="0 0 20 15" fill="none" xmlns="http://www.w3.org/2000/svg">
<g id="Email">
<path id="Vector" d="M18.3337 3.44958V11.7829C18.3337 12.3355 18.1142 12.8654 17.7235 13.2561C17.3328 13.6468 16.8029 13.8663 16.2503 13.8663H3.75033C3.19779 13.8663 2.66789 13.6468 2.27719 13.2561C1.88649 12.8654 1.66699 12.3355 1.66699 11.7829V3.44958" stroke="white" stroke-width="1.4" stroke-linecap="round" stroke-linejoin="round"/>
<path id="Vector_2" d="M18.3337 3.44954C18.3337 2.89701 18.1142 2.36711 17.7235 1.97641C17.3328 1.5857 16.8029 1.36621 16.2503 1.36621H3.75033C3.19779 1.36621 2.66789 1.5857 2.27719 1.97641C1.88649 2.36711 1.66699 2.89701 1.66699 3.44954L8.89616 7.96343C9.22727 8.17038 9.60987 8.2801 10.0003 8.2801C10.3908 8.2801 10.7734 8.17038 11.1045 7.96343L18.3337 3.44954Z" stroke="white" stroke-width="1.4" stroke-linecap="round" stroke-linejoin="round"/>
</g>
</svg>
