<svg width="20" height="19" viewBox="0 0 20 19" fill="none" xmlns="http://www.w3.org/2000/svg">
<g id="Phone">
<path id="Vector" d="M12.2519 16.8851L12.261 16.8915C13.0481 17.3926 13.9825 17.6102 14.91 17.5084C15.8374 17.4065 16.7024 16.9913 17.3619 16.3313L17.9349 15.7584C18.0618 15.6315 18.1626 15.4808 18.2313 15.315C18.3 15.1492 18.3354 14.9714 18.3354 14.7919C18.3354 14.6124 18.3 14.4347 18.2313 14.2688C18.1626 14.103 18.0618 13.9524 17.9349 13.8255L15.5183 11.4107C15.3914 11.2838 15.2408 11.183 15.0749 11.1143C14.9091 11.0456 14.7314 11.0102 14.5519 11.0102C14.3724 11.0102 14.1946 11.0456 14.0288 11.1143C13.863 11.183 13.7123 11.2838 13.5854 11.4107C13.3292 11.6669 12.9817 11.8108 12.6194 11.8108C12.2571 11.8108 11.9097 11.6669 11.6535 11.4107L7.7895 7.54586C7.53336 7.28963 7.38946 6.94217 7.38946 6.57987C7.38946 6.21757 7.53336 5.8701 7.7895 5.61388C7.91647 5.487 8.01719 5.33633 8.08591 5.17051C8.15463 5.00468 8.19 4.82694 8.19 4.64744C8.19 4.46794 8.15463 4.29019 8.08591 4.12437C8.01719 3.95854 7.91647 3.80788 7.7895 3.68099L5.37385 1.26625C5.11763 1.01011 4.77016 0.866211 4.40786 0.866211C4.04556 0.866211 3.69809 1.01011 3.44187 1.26625L2.86802 1.83919C2.20817 2.49883 1.79311 3.36385 1.69142 4.29131C1.58973 5.21878 1.80749 6.15318 2.30874 6.94012L2.3142 6.94923C4.96139 10.8658 8.33483 14.2386 12.2519 16.8851V16.8851Z" stroke="white" stroke-width="1.4" stroke-linecap="round" stroke-linejoin="round"/>
</g>
</svg>
