<svg width="56" height="56" viewBox="0 0 56 56" fill="none" xmlns="http://www.w3.org/2000/svg">
<path d="M45.5439 15.6381C44.9451 12.0798 43.1832 8.83242 40.4886 6.36809C37.4946 3.6274 33.6023 2.11887 29.5488 2.11887C26.4166 2.11887 23.365 3.01708 20.751 4.70986C18.5745 6.11475 16.7666 8.01481 15.4884 10.2488C14.9356 10.1452 14.3599 10.0876 13.7841 10.0876C8.88999 10.0876 4.90561 14.072 4.90561 18.9661C4.90561 19.5994 4.97471 20.2098 5.08986 20.8086C1.92309 23.1117 0 26.8197 0 30.7695C0 33.9593 1.1861 37.057 3.35102 39.5098C5.57351 42.0202 8.50997 43.5057 11.6422 43.6784C11.6767 43.6784 11.6998 43.6784 11.7343 43.6784H21.6377C22.5013 43.6784 23.1923 42.9875 23.1923 42.1238C23.1923 41.2601 22.5013 40.5692 21.6377 40.5692H11.7804C7.07053 40.2813 3.10919 35.8018 3.10919 30.758C3.10919 27.4991 4.85955 24.459 7.68086 22.8123C8.33724 22.4323 8.61361 21.6377 8.36027 20.9237C8.12996 20.3019 8.01481 19.6455 8.01481 18.943C8.01481 15.7648 10.6058 13.1738 13.7841 13.1738C14.4635 13.1738 15.1314 13.2889 15.7532 13.5192C16.5133 13.7956 17.3539 13.4501 17.6994 12.7247C19.8528 8.153 24.505 5.20503 29.5604 5.20503C36.3545 5.20503 41.9626 10.2949 42.6074 17.043C42.6765 17.7454 43.2063 18.3097 43.8972 18.4249C49.0216 19.3 52.8908 24.0329 52.8908 29.4337C52.8908 35.1569 48.3882 40.1316 42.8378 40.5577H34.3508C33.4871 40.5577 32.7962 41.2486 32.7962 42.1123C32.7962 42.976 33.4871 43.6669 34.3508 43.6669H42.8953C42.9299 43.6669 42.9644 43.6669 43.0105 43.6669C46.5227 43.4135 49.8046 41.8014 52.2459 39.1067C54.6757 36.4351 56 33.0035 56 29.4337C55.9885 22.9735 51.578 17.2272 45.5439 15.6381Z" fill="#100F2F"/>
<path d="M37.3336 32.2435C37.9439 31.6332 37.9439 30.6543 37.3336 30.044L29.1 21.8104C28.8121 21.5225 28.4091 21.3498 28.006 21.3498C27.603 21.3498 27.1999 21.511 26.912 21.8104L18.6784 30.044C18.0681 30.6543 18.0681 31.6332 18.6784 32.2435C18.9778 32.5429 19.3809 32.7041 19.7724 32.7041C20.1639 32.7041 20.567 32.5544 20.8664 32.2435L26.4514 26.6585V52.3266C26.4514 53.1902 27.1424 53.8812 28.006 53.8812C28.8697 53.8812 29.5606 53.1902 29.5606 52.3266V26.6585L35.1456 32.2435C35.7445 32.8538 36.7233 32.8538 37.3336 32.2435Z" fill="#100F2F"/>
</svg>
